<svg id="ebnSAeWYBm71" xmlns="http://www.w3.org/2000/svg" xmlns:xlink="http://www.w3.org/1999/xlink" viewBox="0 0 32 32" shape-rendering="geometricPrecision" text-rendering="geometricPrecision" project-id="a9bae09a54ef4f9c8c1566050792afe4" export-id="10611e93338344879a739de4b3aa92f5" cached="false" width="32" height="32"><g clip-path="url(#ebnSAeWYBm710)"><g transform="matrix(1.1567 0 0 1.1567 -2.507 1.4482)"><g transform="matrix(1.2 0 0 1.2 0.395908 -2.5)"><path d="M-9982.6,-10482.378876l-8.7,4.857789-.112-6.713818l8.815-4.597095-.003,6.453124Z" transform="translate(10003.0882 10500.419)" fill="#008f15"/><path d="M-9971,-10478l-6.365-4.538v-5.521l2.437-2.733l3.929,5.708-.001,7.084Z" transform="translate(9982.8 10501)" fill="#f9f3dd"/><path d="M-9978.6,-10491.597351l-8.703,4.597096-3.9162-5.976095l8.8359-3.49265l3.7833,4.871649Z" transform="translate(9999.0912 10503.18435)" fill="#bc8459"/><path d="M357.3,-523.62l6.534,3.177-3.314-8.8-3.22,5.623Z" transform="translate(-348.83 532.03)" fill="#a2ff36"/><path d="M14.994,11.596l2.5595-1.0266-2.9361-8.7347-2.9412.95557L14.994,11.596Z" fill="#64b902" stroke-width="1.0203"/></g></g><clipPath id="ebnSAeWYBm710"><rect width="32" height="32" rx="0" ry="0"/></clipPath></g><polygon points="82,40.34375 60.55,40.34375 60.55,18 39.45,18 39.45,40.34375 18,40.34375 18,62.322917 39.45,62.322917 39.45,84.666667 60.55,84.666667 60.55,62.322917 82,62.322917 82,40.34375" transform="matrix(0.09 -0.049888 0 0.12 16.227925 18.5308)" fill="#fffb00"/></svg>
