<svg id="e3fGPa62cJb1" xmlns="http://www.w3.org/2000/svg" xmlns:xlink="http://www.w3.org/1999/xlink" viewBox="0 0 26 26" shape-rendering="geometricPrecision" text-rendering="geometricPrecision" project-id="42063de51dd647a89b840527bb329bd4" export-id="5150c4354ef64b3c945360c47076097a" cached="false" width="26" height="26"><g><g transform="translate(4.394 3.994)"><path d="M-5119.555,-8630.518v-6.224h-3.051l8.16-7.31l1.967,2.244v-3.038h2.282v4.7l4.219,3.4h-3.472v6.224l-10.105.004Z" transform="translate(5122.61 8644.84)" fill="#f1d825"/><rect width="3" height="4" rx="0" ry="0" transform="translate(6.606 7.006)" fill="#8d909c"/></g></g><polygon points="82,39.45 60.55,39.45 60.55,18 39.45,18 39.45,39.45 18,39.45 18,60.55 39.45,60.55 39.45,82 60.55,82 60.55,60.55 82,60.55 82,39.45" transform="matrix(.17 0 0 0.17 8.9317 7.21486)" fill="#00ff8f"/></svg>
